# xmcd
#
# Track frame offsets:
# 150
# 16836
# 31648
# 43762
# 62463
# 75457
# 92053
# 109536
# 122826
# 139230
#
# Disc length: 2103 seconds
#
#
# Revision: 0
# Processed by: cddbd v1.5.1PL0 Copyright (c) Steve Scherf et al.
# Submitted via: FreeRIP 2.942 
#
DISCID=7108350a
DTITLE=Donald Bradburn - Donald Bradburn And The Moonlight Drift
DYEAR=2005
DGENRE=
TTITLE0=
TTITLE1=Still The Same
TTITLE2=Beautiful Sunday
TTITLE3=Losing End
TTITLE4=Me And You And A Dog Named Boo
TTITLE5=Love Will Keep Us Alive
TTITLE6=
TTITLE7=Green River
TTITLE8=The Key To My Heart
TTITLE9=From The Reservation
EXTD=
EXTT0=
EXTT1=
EXTT2=
EXTT3=
EXTT4=
EXTT5=
EXTT6=
EXTT7=
EXTT8=
EXTT9=
PLAYORDER=
